<?xml version="1.0" standalone="no"?>
<!DOCTYPE svg PUBLIC "-//W3C//DTD SVG 1.1//EN" "http://www.w3.org/Graphics/SVG/1.1/DTD/svg11.dtd" >
<svg xmlns="http://www.w3.org/2000/svg">
<metadata></metadata>
<defs>
<font id="bemioregular" horiz-adv-x="1400" >
<font-face units-per-em="2048" ascent="1536" descent="-512" />
<missing-glyph horiz-adv-x="491" />
<glyph unicode="&#xfb01;" horiz-adv-x="1572" d="M61 727v358h115v5q0 104 35.5 184.5t93 130t138.5 80.5t163.5 43t177.5 12q267 0 453 -65l-41 -312q-38 13 -115 28t-143 15q-48 0 -83 -3t-74.5 -13.5t-61 -34.5t-21.5 -61v-9h775v-1085h-523v727h-252v-727h-522v727h-115z" />
<glyph unicode="&#xfb02;" horiz-adv-x="1574" d="M61 727v358h115v5q0 104 37.5 184.5t98 130t146.5 80.5t174.5 43t190.5 12q82 0 154.5 -8.5t149 -27.5t136.5 -55t108.5 -87t75 -127.5t26.5 -171.5v-1063h-523v1085q0 50 -31 85.5t-90 35.5q-131 0 -131 -112v-9h172v-358h-172v-727h-522v727h-115z" />
<glyph unicode="&#xfb03;" horiz-adv-x="2347" d="M61 727v358h115v5q0 219 128.5 324.5t350.5 105.5q75 0 140 -11t118 -33.5t82.5 -39t71.5 -43.5q152 147 492 147q266 0 452 -65l-41 -312q-38 13 -115 28t-143 15q-38 0 -65.5 -1.5t-62.5 -8t-57.5 -18t-38 -33t-15.5 -51.5v-9h774v-1085h-523v727h-251v-727h-523v727 h-252v-727h-522v727h-115zM698 1085h252v5q0 35 2 51q-59 45 -131 45q-123 0 -123 -96v-5z" />
<glyph unicode="&#xfb04;" horiz-adv-x="2349" d="M61 727v358h115v5q0 219 128.5 324.5t350.5 105.5q76 0 141 -11.5t119 -34.5t82.5 -39t71.5 -44l-2 -5q165 154 530 154q82 0 154.5 -8.5t149 -27.5t136.5 -55t108.5 -87t75 -127.5t26.5 -171.5v-1063h-523v1085q0 50 -30.5 85.5t-89.5 35.5q-131 0 -131 -112v-9h172 v-358h-172v-727h-523v727h-252v-727h-522v727h-115zM698 1085h252v5q0 35 2 51q-59 45 -131 45q-123 0 -123 -96v-5z" />
<glyph horiz-adv-x="2048" />
<glyph horiz-adv-x="2048" />
<glyph unicode="&#xd;" horiz-adv-x="2048" />
<glyph unicode=" "  horiz-adv-x="491" />
<glyph unicode="&#x09;" horiz-adv-x="491" />
<glyph unicode="&#xa0;" horiz-adv-x="491" />
<glyph unicode="!" horiz-adv-x="706" d="M96 1159v225h514v-225l-84 -643h-346zM113 0v410h481v-410h-481z" />
<glyph unicode="&#x22;" horiz-adv-x="1052" d="M94 1245v139h352v-139l-20 -495h-311zM606 1245v139h352v-139l-20 -495h-311z" />
<glyph unicode="#" horiz-adv-x="1357" d="M57 248v250h240l27 200h-193v250h225l33 248h281l-33 -248h176l33 248h280l-32 -248h206v-250h-239l-27 -200h193v-250h-226l-32 -248h-281l33 248h-176l-33 -248h-281l33 248h-207zM578 498h176l26 200h-176z" />
<glyph unicode="$" horiz-adv-x="1294" d="M66 76q19 87 28.5 130t10.5 47.5t1.5 7t1.5 6.5t10.5 48.5t28.5 130.5q119 -53 222.5 -81.5t232.5 -28.5q127 0 127 63q0 31 -36.5 51.5t-95 35t-129 31t-141 46.5t-129 73.5t-94.5 120t-36 177.5q1 207 132.5 329t360.5 144v192h205v-192q202 -11 416 -74l-80 -356 q-188 78 -408 78q-63 0 -95 -13.5t-32 -48.5q0 -28 29 -49.5t76 -34.5t107.5 -30t123.5 -34.5t123.5 -50t107.5 -74t76 -109.5t29 -154q0 -216 -124 -333.5t-349 -141.5v-312h-205v305q-268 8 -495 101z" />
<glyph unicode="%" horiz-adv-x="1720" d="M53 1040q0 168 88 269.5t252 101.5t252 -101.5t88 -269.5t-88 -269t-252 -101t-252 101t-88 269zM299 1040q0 -80 25 -127t69 -47t69 47t25 127t-25 127t-69 47t-69 -47t-25 -127zM309 -20l897 1425h205l-899 -1425h-203zM987 344q0 168 88 269.5t252 101.5t252 -101.5 t88 -269.5t-88 -269.5t-252 -101.5t-252 101.5t-88 269.5zM1233 344q0 -80 25 -127t69 -47t69 47t25 127t-25 127t-69 47t-69 -47t-25 -127z" />
<glyph unicode="&#x26;" horiz-adv-x="1452" d="M61 365q0 128 74.5 222t192.5 124q-224 100 -224 315q0 186 161.5 285.5t436.5 99.5q238 0 482 -80l-62 -366q-63 25 -163 44t-191 19q-174 0 -174 -80q0 -74 160 -74h37v-348h-62q-151 0 -151 -82q0 -46 40 -67t103 -21q89 0 130.5 39t41.5 99v380h526v-348h-112v-16 q0 -91 -18.5 -168t-63.5 -146.5t-114.5 -117.5t-178 -76.5t-248.5 -28.5q-95 0 -182 12.5t-168.5 42t-141 73.5t-95.5 112t-36 152z" />
<glyph unicode="'" horiz-adv-x="540" d="M94 1245v139h352v-139l-20 -495h-311z" />
<glyph unicode="(" horiz-adv-x="753" d="M51 532q0 248 70 470t221 464h418q-154 -202 -232.5 -441.5t-78.5 -492.5t78.5 -491.5t232.5 -441.5h-418q-151 242 -221 463.5t-70 469.5z" />
<glyph unicode=")" horiz-adv-x="753" d="M-6 -401q154 203 232.5 441.5t78.5 491.5t-78.5 492.5t-232.5 441.5h418q151 -242 220.5 -464t69.5 -470t-69.5 -469.5t-220.5 -463.5h-418z" />
<glyph unicode="*" horiz-adv-x="1026" d="M59 963l78 239l76 -24l199 -91l-25 218v79h252v-79l-25 -215l199 90l76 24l78 -239l-74 -25l-215 -45l147 -160l47 -65l-204 -148l-45 64l-109 190l-108 -190l-46 -64l-204 148l47 63l147 162l-215 43z" />
<glyph unicode="+" horiz-adv-x="1173" d="M59 362v318h365v362h326v-362h364v-318h-364v-362h-326v362h-365z" />
<glyph unicode="," horiz-adv-x="675" d="M98 0v410h482v-373l-232 -342h-239l188 305h-199z" />
<glyph unicode="-" horiz-adv-x="872" d="M98 375v317h676v-317h-676z" />
<glyph unicode="." horiz-adv-x="677" d="M98 0v410h482v-410h-482z" />
<glyph unicode="/" horiz-adv-x="1103" d="M49 -57l668 1472h340l-668 -1472h-340z" />
<glyph unicode="0" horiz-adv-x="1409" d="M66 692q0 160 39 290t116 226.5t200 149.5t284 53t284 -53t200 -149.5t115.5 -226.5t38.5 -290t-38.5 -290t-115.5 -226.5t-200 -149.5t-284 -53t-284 53t-200 149.5t-116 226.5t-39 290zM596 692q0 -170 23 -254t86 -84t85.5 84t22.5 254t-22.5 254t-85.5 84t-86 -84 t-23 -254z" />
<glyph unicode="1" horiz-adv-x="999" d="M27 786v301q407 0 422 297h432v-1384h-521v786h-333z" />
<glyph unicode="2" horiz-adv-x="1341" d="M76 0v395q68 43 161.5 98.5t154.5 91.5t128.5 81t107 79.5t65.5 74t26 77.5q0 59 -46 80.5t-149 21.5q-155 0 -374 -90l-74 389q109 42 277 77.5t302 35.5q104 0 188 -11.5t161.5 -42.5t129.5 -80t82.5 -127.5t30.5 -182.5q0 -68 -20.5 -131.5t-53.5 -115.5t-88 -107 t-111 -100t-136 -101h424v-412h-1186z" />
<glyph unicode="3" horiz-adv-x="1306" d="M43 53l53 400q202 -84 402 -84q219 0 219 73q0 80 -154 80h-274v357h233q152 0 152 67q0 72 -168 72q-87 0 -186 -20t-164 -46l-62 377q246 82 496 82q278 0 437 -100t159 -299q0 -105 -63.5 -182t-161.5 -119q120 -29 207 -122.5t87 -215.5q0 -87 -36.5 -156t-98.5 -114 t-148.5 -75t-181 -42.5t-202.5 -12.5q-305 0 -545 80z" />
<glyph unicode="4" horiz-adv-x="1406" d="M37 248v387l547 749h612v-757h135v-379h-135v-248h-481v248h-678zM463 616h262v357z" />
<glyph unicode="5" horiz-adv-x="1284" d="M51 51l55 385q190 -82 349 -82q99 0 154 27t55 78q0 59 -56 85.5t-139 26.5q-71 0 -176 -18l-205 147l102 684h984v-387h-533l-18 -114q62 4 94 4q80 0 152.5 -15.5t138.5 -50.5t114 -87t76.5 -130.5t28.5 -175.5q0 -99 -36.5 -177.5t-98 -130t-147.5 -85t-179.5 -48 t-200.5 -14.5q-247 0 -514 78z" />
<glyph unicode="6" horiz-adv-x="1363" d="M63 692q0 164 53 300t145 227.5t216.5 141.5t267.5 50q279 0 492 -104l-74 -326q-57 24 -143 41.5t-176 17.5q-111 0 -183.5 -50.5t-85.5 -160.5q140 86 297 86q112 0 198 -34.5t139 -97t79.5 -145t26.5 -181.5q0 -218 -164 -351t-463 -133q-308 0 -466.5 189.5 t-158.5 529.5zM608 459q0 -59 23.5 -97t73.5 -38q49 0 72.5 38.5t23.5 96.5q0 60 -23 98.5t-73 38.5q-48 0 -72.5 -39t-24.5 -98z" />
<glyph unicode="7" horiz-adv-x="1214" d="M35 958v426h1157v-370q-118 -148 -199.5 -291t-137.5 -331t-64 -392h-539q6 231 102.5 466t263.5 492h-583z" />
<glyph unicode="8" horiz-adv-x="1363" d="M61 362q0 259 279 345q-113 38 -171 118t-58 215q0 186 148.5 278.5t422.5 92.5t422.5 -92.5t148.5 -278.5q0 -135 -58 -215t-171 -118q279 -86 279 -345q0 -93 -31.5 -162.5t-84.5 -112.5t-134.5 -69t-169.5 -35.5t-201 -9.5t-201 9.5t-169.5 35.5t-134.5 69 t-84.5 112.5t-31.5 162.5zM582 410q0 -150 100 -150t100 150q0 161 -100 161t-100 -161zM600 1001q0 -60 22.5 -95.5t59.5 -35.5t59.5 35.5t22.5 95.5q0 59 -20 96.5t-62 37.5t-62 -37.5t-20 -96.5z" />
<glyph unicode="9" horiz-adv-x="1378" d="M59 936q0 214 168.5 344.5t454.5 130.5q165 0 289 -54t198 -151t110 -221t36 -274q0 -341 -179 -539.5t-511 -198.5q-136 0 -276 28t-240 77l73 352q72 -32 170 -54t189 -22q93 0 151 23t82.5 59.5t34.5 95.5q-37 -19 -67 -31t-88 -22t-130 -10q-116 0 -206 36t-146 100 t-84.5 148t-28.5 183zM575 920q0 -59 25 -98.5t76 -39.5q52 0 76 39t24 99q0 58 -25 98.5t-75 40.5q-52 0 -76.5 -40t-24.5 -99z" />
<glyph unicode=":" horiz-adv-x="714" d="M117 0v410h481v-410h-481zM117 676v409h481v-409h-481z" />
<glyph unicode=";" horiz-adv-x="712" d="M117 0v410h481v-373l-231 -342h-240l188 305h-198zM117 676v409h481v-409h-481z" />
<glyph unicode="&#x3c;" horiz-adv-x="1138" d="M57 354v336l983 383v-346l-591 -205l591 -205v-346z" />
<glyph unicode="=" horiz-adv-x="1259" d="M102 117v317h1055v-317h-1055zM102 610v318h1055v-318h-1055z" />
<glyph unicode="&#x3e;" horiz-adv-x="1138" d="M98 -29v346l592 205l-592 205v346l983 -383v-336z" />
<glyph unicode="?" horiz-adv-x="1062" d="M49 1327q217 84 459 84q107 0 193.5 -17t156.5 -54t108 -101.5t38 -153.5q0 -71 -28 -135.5t-68 -111.5t-80.5 -90.5t-68.5 -92t-28 -96.5v-43h-409v70q0 46 20 89.5t48.5 79.5t57 71t48.5 77.5t20 85.5q0 70 -117 70q-131 0 -284 -58zM291 0v410h481v-410h-481z" />
<glyph unicode="@" horiz-adv-x="1581" d="M74 504q0 160 65.5 305.5t173 247.5t250 162.5t291.5 60.5q196 0 350 -84.5t238 -231.5t84 -329q0 -121 -35.5 -217t-93.5 -152.5t-125.5 -86t-138.5 -29.5q-52 0 -91 16t-60 42t-31.5 47t-16.5 44q-49 -71 -120 -110t-150 -39q-149 0 -234.5 96t-85.5 241q0 191 126 329 t298 138q82 0 146 -34.5t100 -94.5l18 99h232l-88 -467q-2 -26 -4 -57.5t16 -58t55 -26.5q78 0 130 81.5t52 238.5q0 248 -157.5 399.5t-417.5 151.5q-133 0 -258 -54.5t-217.5 -145t-148.5 -216.5t-56 -262q0 -167 81 -303.5t219.5 -213.5t303.5 -77q190 0 354 104l52 -75 q-194 -121 -410 -121q-148 0 -278.5 54.5t-221.5 146.5t-143.5 217.5t-52.5 263.5zM598 504q0 -73 40 -117.5t107 -44.5q84 0 148.5 70t64.5 188q0 69 -38 113.5t-105 44.5q-94 0 -155.5 -74t-61.5 -180z" />
<glyph unicode="A" horiz-adv-x="1552" d="M-27 0l484 1384h637l485 -1384h-535l-63 231h-410l-61 -231h-537zM659 555h234l-117 426z" />
<glyph unicode="B" horiz-adv-x="1466" d="M119 2v1374q278 35 481 35q95 0 180.5 -7.5t174 -25t158.5 -49t126 -76t86.5 -110.5t30.5 -148q0 -106 -52 -179t-135 -114q29 -6 61.5 -20t67.5 -41t63 -61.5t46 -85t18 -107.5q0 -83 -29.5 -149t-86.5 -110.5t-129.5 -75.5t-168.5 -48t-192.5 -24t-212.5 -7 q-249 0 -487 29zM627 326q14 -2 92 -2q35 0 68 6t65.5 19t52 38.5t19.5 61.5q0 126 -211 126q-46 0 -86 -4v-245zM627 842q18 -2 75 -2q46 0 83 8.5t66.5 37t29.5 75.5q0 42 -28.5 68.5t-64.5 35t-79 8.5q-42 0 -82 -4v-227z" />
<glyph unicode="C" horiz-adv-x="1361" d="M57 692q0 220 95.5 383.5t267.5 249.5t399 86q244 0 502 -86l-102 -373q-122 52 -267 52q-168 0 -260 -82t-92 -230t92 -229.5t260 -81.5q147 0 267 51l102 -373q-258 -86 -502 -86q-344 0 -553 194.5t-209 524.5z" />
<glyph unicode="D" horiz-adv-x="1601" d="M119 2v1374q231 35 532 35q265 0 466 -83.5t315 -249t114 -394.5q0 -127 -33.5 -232t-88.5 -177t-134.5 -127.5t-162.5 -88t-182 -52.5t-183.5 -27t-175.5 -7q-189 0 -467 29zM651 367q16 -2 62 -2q149 0 222 93.5t73 250.5q0 154 -76 238.5t-215 84.5q-50 0 -66 -2v-663 z" />
<glyph unicode="E" horiz-adv-x="1347" d="M119 0v1384h1143v-389h-623v-121h545v-360h-545v-127h623v-387h-1143z" />
<glyph unicode="F" horiz-adv-x="1253" d="M119 0v1384h1085v-393h-557v-170h488v-407h-488v-414h-528z" />
<glyph unicode="G" horiz-adv-x="1495" d="M55 688q0 219 104 384t287.5 252t419.5 87q154 0 261.5 -16t230.5 -49l-68 -381q-165 49 -319 49q-373 0 -373 -326q0 -79 26.5 -141.5t71 -99.5t97.5 -56.5t110 -19.5q21 0 49 4v393h465v-690q-243 -105 -575 -105q-169 0 -312.5 48.5t-249 138t-165.5 225.5t-60 303z " />
<glyph unicode="H" horiz-adv-x="1642" d="M119 0v1384h530v-497h344v497h531v-1384h-531v514h-344v-514h-530z" />
<glyph unicode="I" horiz-adv-x="772" d="M119 0v1384h534v-1384h-534z" />
<glyph unicode="J" horiz-adv-x="1085" d="M16 49l93 363q81 -23 141 -23q100 0 150.5 32t50.5 124v440h-248v399h778v-811q0 -600 -598 -600q-208 0 -367 76z" />
<glyph unicode="K" horiz-adv-x="1536" d="M119 0v1384h534v-491l297 491h574l-424 -622l461 -762h-611l-297 563v-563h-534z" />
<glyph unicode="L" horiz-adv-x="1198" d="M119 0v1384h534v-995h525v-389h-1059z" />
<glyph unicode="M" horiz-adv-x="1800" d="M119 0v1384h536l244 -452l246 452h536v-1384h-497v707l-279 -443h-12l-277 443v-707h-497z" />
<glyph unicode="N" horiz-adv-x="1667" d="M119 0v1384h532l408 -706v706h489v-1384h-506l-434 711v-711h-489z" />
<glyph unicode="O" horiz-adv-x="1677" d="M55 692q0 221 99 384.5t276 249t410 85.5q232 0 408.5 -85.5t275 -249t98.5 -384.5t-98.5 -384.5t-275 -249t-408.5 -85.5q-233 0 -410 85.5t-276 249t-99 384.5zM594 692q0 -155 62 -238t184 -83q120 0 181.5 83t61.5 238q0 156 -61.5 239t-181.5 83q-122 0 -184 -83 t-62 -239z" />
<glyph unicode="P" horiz-adv-x="1456" d="M119 0v1378q217 33 497 33q116 0 224 -15t216.5 -53.5t188.5 -98t130 -155t50 -217.5q0 -118 -47 -212.5t-124.5 -154t-179.5 -97.5q-104 -37 -212 -49q-62 -7 -124 -7q-47 0 -95 4v-356h-524zM639 727q16 -1 33 -1q22 0 44 2q40 4 85 17t73.5 47t28.5 85q0 39 -20 68.5 t-51 44.5q-32 14 -68 24q-33 9 -62 8h-6q-32 -1 -57 -2v-293z" />
<glyph unicode="Q" horiz-adv-x="1679" d="M57 690q0 221 99 385t276 250t410 86q232 0 408.5 -86t275 -250t98.5 -385q0 -236 -113 -405.5t-311 -247.5q32 -39 84 -46q17 -2 33 -2q33 0 64 9q46 14 94 41l157 -238q-69 -64 -157.5 -106t-179.5 -59q-53 -10 -107 -10q-37 0 -74 5q-91 12 -165.5 51t-130 114 t-75.5 179q-312 27 -499 217t-187 498zM596 692q0 -156 62.5 -241.5t183.5 -85.5q120 0 181.5 85.5t61.5 241.5t-61.5 239t-181.5 83q-122 0 -184 -83t-62 -239z" />
<glyph unicode="R" horiz-adv-x="1519" d="M119 0v1370q96 16 248.5 28.5t283.5 12.5q127 0 235.5 -12.5t213 -46t178 -86.5t118 -138.5t44.5 -197.5q0 -246 -254 -361q216 -42 287 -569h-531q-21 108 -40 182t-43 122t-41.5 74t-52 38t-57.5 14t-73 2h-2v-432h-514zM631 758q14 -2 47 -2q39 0 76 5.5t78 19.5 t65.5 44.5t24.5 73.5q0 41 -22.5 70t-59.5 43t-73 20t-75 6q-29 0 -61 -4v-276z" />
<glyph unicode="S" horiz-adv-x="1300" d="M70 78l84 375q116 -56 218.5 -84.5t237.5 -28.5q115 0 115 51q0 18 -28 31.5t-74 22.5t-105 24.5t-120 34.5t-119.5 55t-104.5 83q-46 46 -74 122q-27 73 -26 163v7q1 152 75.5 260.5t206 162.5t308.5 54q256 0 530 -80l-84 -373q-75 34 -185.5 58t-224.5 24 q-57 0 -85.5 -11t-28.5 -40q0 -16 22.5 -28t61 -22t88 -21t104.5 -27.5t109.5 -38.5t104 -56.5t88 -78.5t61 -109t22.5 -143q0 -248 -159.5 -370t-442.5 -122q-306 0 -575 105z" />
<glyph unicode="T" horiz-adv-x="1361" d="M20 989v395h1321v-395h-393v-989h-534v989h-394z" />
<glyph unicode="U" horiz-adv-x="1546" d="M104 547v837h535v-831q0 -84 27.5 -128t105.5 -44q79 0 107 44.5t28 127.5v831h535v-837q0 -289 -174 -431.5t-496 -142.5t-495 142.5t-173 431.5z" />
<glyph unicode="V" horiz-adv-x="1533" d="M-12 1384h544l234 -919l235 919h547l-418 -1384h-729z" />
<glyph unicode="W" horiz-adv-x="2258" d="M6 1384h529l139 -942l209 942h487l211 -942l141 942h531l-309 -1384h-652l-164 778l-165 -778h-648z" />
<glyph unicode="X" horiz-adv-x="1525" d="M-10 0l405 717l-383 667h553l197 -389l194 389h557l-387 -667l408 -717h-553l-219 422l-219 -422h-553z" />
<glyph unicode="Y" horiz-adv-x="1464" d="M-37 1384h541l225 -499l232 499h538l-500 -890v-494h-534v494z" />
<glyph unicode="Z" horiz-adv-x="1351" d="M68 0v317l583 676h-553v391h1159v-380l-520 -613h533v-391h-1202z" />
<glyph unicode="[" horiz-adv-x="784" d="M106 -399v1865h637v-262h-286v-1337h286v-266h-637z" />
<glyph unicode="\" horiz-adv-x="1103" d="M47 1415h340l668 -1472h-340z" />
<glyph unicode="]" horiz-adv-x="784" d="M41 -133h287v1337h-287v262h637v-1865h-637v266z" />
<glyph unicode="^" horiz-adv-x="1181" d="M72 668l321 716h389l322 -716h-354l-162 417l-162 -417h-354z" />
<glyph unicode="_" horiz-adv-x="1501" d="M246 -76h1009v-178h-1009v178z" />
<glyph unicode="`" horiz-adv-x="808" d="M88 1526h408l225 -318h-297z" />
<glyph unicode="a" horiz-adv-x="1329" d="M39 322q0 172 121 261t346 89q40 0 109 -7t104 -14v11q0 100 -191 100q-184 0 -340 -60l-71 324q222 86 522 86q301 0 451.5 -119t150.5 -352v-641h-516v100q-137 -127 -317 -127q-160 0 -264.5 102t-104.5 247zM528 346q0 -38 24 -61t66 -23q59 0 86 39t27 102v37 q-30 6 -76 6q-60 0 -93.5 -27t-33.5 -73z" />
<glyph unicode="b" horiz-adv-x="1441" d="M102 0v1513h523v-538q127 137 309 137q133 0 238 -76.5t162 -205.5t57 -285t-57 -286.5t-162 -208t-238 -77.5q-98 0 -183 44t-147 122v-139h-502zM582 545q0 -77 42.5 -130t108.5 -53t109 53.5t43 129.5t-43 129t-109 53t-108.5 -52.5t-42.5 -129.5z" />
<glyph unicode="c" horiz-adv-x="1103" d="M49 543q0 254 165 411.5t443 157.5q190 0 402 -74l-68 -336q-105 43 -209 43q-62 0 -107.5 -17.5t-69 -47.5t-34 -62t-10.5 -69q0 -36 10.5 -68.5t34 -63.5t69 -49t107.5 -18q113 0 209 45l68 -350q-206 -72 -402 -72q-279 0 -443.5 157t-164.5 413z" />
<glyph unicode="d" horiz-adv-x="1441" d="M51 545q0 156 59.5 285t169 205.5t246.5 76.5q171 0 291 -133v534h522v-1513h-501v139q-62 -78 -147 -122t-183 -44q-133 0 -238 77.5t-162 208t-57 286.5zM557 545q0 -76 43 -129.5t109 -53.5t108.5 53t42.5 130t-42.5 129.5t-108.5 52.5t-109 -53t-43 -129z" />
<glyph unicode="e" horiz-adv-x="1253" d="M47 555q0 124 47.5 230t127.5 176.5t187 110.5t226 40q166 0 287 -52.5t187.5 -147t89.5 -218.5q12 -66 12 -139q0 -64 -9 -133h-682q57 -117 297 -117q134 0 285 51l53 -307q-194 -76 -463 -76q-134 0 -249.5 36t-204.5 106t-140 183t-51 257zM506 666h270 q-8 64 -39.5 103.5t-89.5 39.5q-112 0 -141 -143zM506 666h270h-270z" />
<glyph unicode="f" horiz-adv-x="905" d="M61 727v358h115v5q0 104 25 184.5t65.5 130t98 80.5t116.5 43t127 12q174 0 301 -51l-35 -287q-28 4 -49 4q-28 0 -47 -3t-39.5 -13.5t-30.5 -34.5t-10 -61v-9h172v-358h-172v-727h-522v727h-115z" />
<glyph unicode="g" horiz-adv-x="1437" d="M47 623q0 134 57.5 245.5t163 177.5t238.5 66q199 0 330 -141v114h501v-913q0 -315 -149.5 -455.5t-489.5 -140.5q-153 0 -263 23t-170.5 64.5t-87.5 91.5t-27 112q0 96 64 170t183 110q-158 35 -254 168t-96 308zM557 580q0 -72 38.5 -122t100.5 -50t102 50t40 122 q0 71 -40 120.5t-102 49.5q-61 0 -100 -49.5t-39 -120.5zM627 -23q0 -51 25 -77.5t71 -26.5q48 0 76 31.5t28 91.5v143q-8 -1 -21.5 -3t-48 -13t-61 -27t-48 -47.5t-21.5 -71.5z" />
<glyph unicode="h" horiz-adv-x="1431" d="M102 0v1513h523v-528q124 127 323 127q165 0 278 -107.5t113 -267.5v-737h-522v621q0 41 -28 70.5t-68 29.5t-68 -29.5t-28 -70.5v-621h-523z" />
<glyph unicode="i" horiz-adv-x="727" d="M96 1190v323h535v-323h-535zM102 0v1085h523v-1085h-523z" />
<glyph unicode="j" horiz-adv-x="729" d="M-70 -94q29 10 47 17.5t45 23t42.5 33t27.5 45t12 61.5v999h523v-976q0 -97 -22 -175t-56.5 -131.5t-89 -94t-108 -63.5t-125.5 -38.5t-129 -21.5t-130 -9zM98 1190v323h535v-323h-535z" />
<glyph unicode="k" d="M102 0v1513h523v-778l221 350h526l-334 -442l377 -643h-555l-235 442v-442h-523z" />
<glyph unicode="l" horiz-adv-x="727" d="M102 0v1513h523v-1513h-523z" />
<glyph unicode="m" horiz-adv-x="2125" d="M102 0v1085h500v-110q57 62 148 99.5t194 37.5q99 0 182.5 -42.5t135.5 -115.5q54 60 152 109t235 49q165 0 275 -107t110 -268v-737h-523v621q0 42 -25.5 71t-64.5 29t-65.5 -29t-26.5 -71v-621h-522v621q0 42 -25.5 71t-64.5 29t-65.5 -29t-26.5 -71v-621h-523z" />
<glyph unicode="n" horiz-adv-x="1431" d="M102 0v1085h506v-106q133 133 340 133q165 0 278 -107.5t113 -267.5v-737h-522v621q0 41 -28 70.5t-68 29.5t-68 -29.5t-28 -70.5v-621h-523z" />
<glyph unicode="o" d="M45 543q0 132 53 241t143 180t209 109.5t252 38.5t251 -39t208 -110t142.5 -180t52.5 -240t-52.5 -240t-142.5 -180.5t-208 -110.5t-251 -39t-252 39t-209 110t-143 180t-53 241zM547 543q0 -79 43 -135t110 -56t110.5 56t43.5 135t-43.5 134.5t-110.5 55.5t-110 -55.5 t-43 -134.5z" />
<glyph unicode="p" horiz-adv-x="1441" d="M102 -397v1482h502v-139q62 78 147 122t183 44q133 0 238 -77.5t162 -207.5t57 -286t-59.5 -285.5t-169.5 -206t-247 -76.5q-170 0 -290 133v-503h-523zM582 545q0 -77 42.5 -130t108.5 -53t109 53.5t43 129.5t-43 129t-109 53t-108.5 -52.5t-42.5 -129.5z" />
<glyph unicode="q" horiz-adv-x="1441" d="M51 541q0 156 57 286t162 207.5t238 77.5q98 0 183 -44t147 -122v139h501v-1482h-522v508q-128 -138 -309 -138q-133 0 -238 76.5t-162 206t-57 285.5zM557 545q0 -76 43 -129.5t109 -53.5t108.5 53t42.5 130t-42.5 129.5t-108.5 52.5t-109 -53t-43 -129z" />
<glyph unicode="r" horiz-adv-x="976" d="M102 0v1085h488v-192q10 23 15 33.5t18.5 35t24 38t29 35t36 32.5t43.5 24t53 17q24 4 55 3q4 1 8 1q36 0 74 -10v-406q-32 4 -61 4q-110 0 -176 -60q-84 -76 -84 -234v-406h-523z" />
<glyph unicode="s" horiz-adv-x="1120" d="M47 98l47 312q73 -49 171.5 -80t197.5 -31q86 0 86 41q0 13 -26 22t-67 17t-90.5 20t-99.5 36t-91 59t-67 96t-26 141q0 188 142.5 284.5t391.5 96.5q210 0 418 -88l-45 -297q-58 26 -144.5 46t-148.5 20q-50 0 -79 -7t-29 -30q0 -15 26.5 -25t68.5 -18.5t93.5 -20.5 t102.5 -37t93 -60.5t68.5 -98t26.5 -144.5q0 -188 -139 -283.5t-387 -95.5q-262 0 -494 125z" />
<glyph unicode="t" horiz-adv-x="960" d="M55 727v358h113v252h522v-252h189v-358h-189v-289q0 -60 37 -88t90 -28q23 0 55 4l41 -289q-63 -28 -158 -46t-192 -18q-395 0 -395 338v416h-113z" />
<glyph unicode="u" horiz-adv-x="1431" d="M92 348v737h522v-620q0 -41 28.5 -70.5t68.5 -29.5t68 29.5t28 70.5v620h522v-1085h-506v106q-133 -133 -340 -133q-165 0 -278 107.5t-113 267.5z" />
<glyph unicode="v" horiz-adv-x="1318" d="M-14 1085h522l151 -641l152 641h522l-381 -1085h-585z" />
<glyph unicode="w" horiz-adv-x="1955" d="M-2 1085h532l105 -591l153 591h371l162 -591l111 591h526l-328 -1085h-506l-145 494l-150 -494h-503z" />
<glyph unicode="x" horiz-adv-x="1384" d="M-10 0l354 567l-317 518h503l162 -284l162 284h504l-318 -518l355 -567h-555l-148 324l-147 -324h-555z" />
<glyph unicode="y" horiz-adv-x="1425" d="M88 428v657h522v-587q0 -43 28.5 -73t68.5 -30t68 30t28 73v587h522v-913q0 -315 -149.5 -455.5t-489.5 -140.5q-123 0 -219 15.5t-157 42t-101 64t-56 79t-16 90.5q0 93 60.5 165.5t173.5 110.5q-137 10 -210 85t-73 200zM614 -31q0 -42 21 -69t67 -27q101 0 101 121 v145q-8 -1 -20.5 -3.5t-45 -15t-57.5 -29.5t-45.5 -49.5t-20.5 -72.5z" />
<glyph unicode="z" horiz-adv-x="1161" d="M59 0v295l418 440h-381v350h981v-313l-391 -422h401v-350h-1028z" />
<glyph unicode="{" horiz-adv-x="874" d="M20 418v233q51 2 98 16t83.5 47.5t36.5 80.5v286q0 194 107.5 289.5t311.5 95.5h177v-258h-136q-60 0 -85 -31t-25 -96v-215q0 -266 -203 -331q203 -65 203 -332v-215q0 -65 25 -96t85 -31h136v-258h-177q-204 0 -311.5 95.5t-107.5 289.5v286q0 47 -36 80t-82 47 t-100 17z" />
<glyph unicode="|" horiz-adv-x="452" d="M106 -397v1863h240v-1863h-240z" />
<glyph unicode="}" horiz-adv-x="874" d="M41 -139h135q60 0 85.5 31t25.5 96v215q0 268 202 332q-202 64 -202 331v215q0 65 -25.5 96t-85.5 31h-135v258h176q204 0 312 -95.5t108 -289.5v-286q0 -47 36.5 -80.5t83 -47.5t97.5 -16v-233q-54 -3 -100 -17t-81.5 -47t-35.5 -80v-286q0 -194 -108 -289.5t-312 -95.5 h-176v258z" />
<glyph unicode="~" horiz-adv-x="1374" d="M68 401q0 55 14 114t45 118.5t75 106.5t109.5 76.5t141.5 29.5q81 0 155.5 -24t120.5 -52t97 -52t89 -24q60 0 98 50.5t56 121.5h244q-1 -77 -27 -157t-73.5 -149.5t-124 -114t-168.5 -44.5q-78 0 -149 23.5t-114.5 51.5t-98 51.5t-105.5 23.5q-58 0 -94.5 -46 t-49.5 -104h-241z" />
<glyph unicode="&#xa1;" horiz-adv-x="677" d="M82 -74l84 643h346l84 -643v-225h-514v225zM98 676v409h482v-409h-482z" />
<glyph unicode="&#xa2;" horiz-adv-x="1126" d="M53 602q0 229 138.5 383.5t377.5 183.5v203h205v-203q134 -16 275 -61l-56 -272q-79 28 -190 28q-64 0 -114.5 -15.5t-81.5 -40t-51 -59t-28 -69t-8 -72.5q0 -46 13.5 -88.5t43.5 -82t88.5 -63.5t137.5 -24q111 0 190 31l60 -289q-138 -45 -279 -59v-293h-205v295 q-240 28 -378 181.5t-138 385.5z" />
<glyph unicode="&#xa3;" horiz-adv-x="1286" d="M63 618v162h144q-21 111 -21 176q0 148 80.5 252.5t212 153.5t299.5 49q243 0 447 -68l-82 -380q-130 36 -234 36q-194 0 -194 -147q0 -32 6 -72h287v-162h-267q7 -126 -28 -243h458v-375h-1060v184q94 127 119 229t10 205h-177z" />
<glyph unicode="&#xa4;" horiz-adv-x="1421" d="M55 70l183 182q-91 140 -91 305q0 167 91 307l-183 183l168 165l183 -182q139 90 305 90q168 0 307 -90l182 182l166 -165l-182 -183q90 -139 90 -307q0 -166 -90 -305l182 -182l-166 -166l-182 182q-142 -92 -307 -92q-163 0 -305 92l-183 -182zM408 557 q0 -124 89 -212.5t214 -88.5q126 0 214.5 88t88.5 213q0 126 -88.5 214.5t-214.5 88.5q-125 0 -214 -88.5t-89 -214.5z" />
<glyph unicode="&#xa5;" horiz-adv-x="1507" d="M45 1384h512l197 -518l196 518h512l-311 -616h176v-162h-258l-55 -112v-58h313v-162h-313v-274h-520v274h-314v162h314v58l-58 112h-256v162h174z" />
<glyph unicode="&#xa6;" horiz-adv-x="565" d="M115 379h336v-778h-336v778zM115 659v701h336v-701h-336z" />
<glyph unicode="&#xa7;" horiz-adv-x="1075" d="M66 438q0 178 165 240q-102 85 -102 235q0 164 118 257.5t318 93.5q186 0 400 -72l-62 -256q-177 63 -319 63q-111 0 -111 -65q0 -20 23 -35.5t61 -26t86.5 -23.5t99 -26t99 -35.5t86.5 -51t61 -74t23 -101.5q0 -174 -164 -239q108 -81 108 -236q0 -164 -118 -257 t-318 -93q-205 0 -430 88l62 256q185 -80 348 -80q112 0 112 66q0 23 -30 39.5t-78.5 29t-106.5 26t-116 35t-106.5 50.5t-78.5 78.5t-30 113.5zM416 520q0 -22 12.5 -38t41 -27.5t54 -18.5t70.5 -16q65 11 65 59q0 28 -25 47.5t-56 29t-85 22.5q-7 1 -10 2q-67 -11 -67 -60 z" />
<glyph unicode="&#xa8;" horiz-adv-x="1179" d="M170 1225v268h334v-268h-334zM686 1225v268h334v-268h-334z" />
<glyph unicode="&#xa9;" horiz-adv-x="1468" d="M63 651q0 182 90 337t245 245t337 90t336.5 -90t244 -244.5t89.5 -337.5q0 -137 -53 -261t-142.5 -213t-213.5 -142t-261 -53t-261 53t-214.5 142t-143.5 213t-53 261zM154 651q0 -118 46 -225t123.5 -184.5t185 -123.5t226.5 -46q157 0 290.5 77.5t211.5 211t78 290.5 q0 119 -46 226.5t-124 185.5t-185 124t-225 46q-158 0 -292 -78t-211.5 -212t-77.5 -292zM367 651q0 167 107 266t278 99q119 0 268 -49l-62 -211q-78 32 -137 32q-71 0 -111 -38t-40 -99q0 -59 40 -98t109 -39q57 0 139 33l62 -211q-143 -47 -268 -47q-173 0 -279 98 t-106 264z" />
<glyph unicode="&#xaa;" horiz-adv-x="1036" d="M80 702q0 117 85 177.5t245 60.5q91 0 149 -14v8q0 67 -133 67q-130 0 -242 -40l-49 221q156 57 369 57q424 0 424 -319v-437h-365v68q-97 -86 -223 -86q-113 0 -186.5 69t-73.5 168zM426 719q0 -26 16.5 -41.5t46.5 -15.5q41 0 60.5 27t19.5 69v24q-14 4 -53 4 q-42 0 -66 -18t-24 -49z" />
<glyph unicode="&#xab;" horiz-adv-x="1671" d="M49 549l393 493h461l-428 -493l428 -494h-461zM770 549l393 493h461l-428 -493l428 -494h-461z" />
<glyph unicode="&#xac;" horiz-adv-x="1333" d="M70 684v305h1155v-645h-310v340h-845z" />
<glyph unicode="&#xad;" horiz-adv-x="872" d="M98 375v317h676v-317h-676z" />
<glyph unicode="&#xae;" horiz-adv-x="1468" d="M63 651q0 182 90 337t245 245t337 90t336.5 -90t244 -244.5t89.5 -337.5q0 -137 -53 -261t-142.5 -213t-213.5 -142t-261 -53t-261 53t-214.5 142t-143.5 213t-53 261zM154 651q0 -118 46 -225t123.5 -184.5t185 -123.5t226.5 -46q157 0 290.5 77.5t211.5 211t78 290.5 q0 119 -46 226.5t-124 185.5t-185 124t-225 46q-158 0 -292 -78t-211.5 -212t-77.5 -292zM426 301v692q156 23 270 23q80 0 145.5 -12t121.5 -38.5t87 -75.5t31 -118q0 -61 -29 -106t-71 -72q51 -37 78.5 -101t46.5 -192h-283q-7 64 -17.5 106t-26 63t-31.5 29t-39 9v-207 h-283zM702 680q45 -3 77 16t32 52q0 32 -30.5 50t-78.5 15v-133z" />
<glyph unicode="&#xaf;" horiz-adv-x="1058" d="M156 1247v207h731v-207h-731z" />
<glyph unicode="&#xb0;" horiz-adv-x="716" d="M53 1141q0 126 89 215.5t216 89.5q126 0 216 -89.5t90 -215.5t-90 -215.5t-216 -89.5q-127 0 -216 89.5t-89 215.5zM221 1141q0 -57 40 -97t97 -40t97.5 40t40.5 97t-40.5 97t-97.5 40t-97 -40t-40 -97z" />
<glyph unicode="&#xb1;" horiz-adv-x="1234" d="M90 0v317h1055v-317h-1055zM90 602v318h365v206h325v-206h365v-318h-365v-207h-325v207h-365z" />
<glyph unicode="&#xb2;" horiz-adv-x="829" d="M55 860v244q34 21 89 53.5t89 52t75 47.5t64.5 49t39.5 45.5t16 47.5q0 25 -27 38t-71 13q-120 0 -228 -53l-47 239q68 28 169 49t179 21q63 0 113.5 -7t97 -25t78 -47.5t50 -76.5t18.5 -110q0 -93 -59 -166.5t-177 -157.5h244v-256h-713z" />
<glyph unicode="&#xb3;" horiz-adv-x="829" d="M49 893l31 246q122 -52 227 -52q131 0 131 41q0 43 -82 43h-159v220h125q29 0 46.5 2t31.5 10t14 24q0 23 -25 30t-76 7q-98 0 -196 -39l-37 232q135 49 297 49q167 0 262.5 -59.5t95.5 -180.5q0 -62 -38 -108.5t-97 -71.5q72 -18 124 -74t52 -129q0 -64 -32.5 -112 t-90 -75t-127 -39.5t-151.5 -12.5q-191 0 -326 49z" />
<glyph unicode="&#xb4;" horiz-adv-x="864" d="M111 1208l225 318h407l-335 -318h-297z" />
<glyph unicode="&#xb5;" horiz-adv-x="1421" d="M102 -397v1482h523v-641q0 -41 28 -70.5t68 -29.5t68 29.5t28 70.5v641h522v-1085h-450v92q-82 -119 -211 -119q-43 0 -92 19v-389h-484z" />
<glyph unicode="&#xb6;" horiz-adv-x="1200" d="M49 1030q0 148 104 251t253 103h727v-133h-172v-1423h-158v1423h-168v-1423h-158v848h-71q-149 0 -253 103t-104 251z" />
<glyph unicode="&#xb7;" horiz-adv-x="677" d="M98 444v410h482v-410h-482z" />
<glyph unicode="&#xb8;" horiz-adv-x="696" d="M74 -424l53 119q250 -53 250 53q0 62 -176 72l143 246l164 16l-131 -201q101 -3 170 -51t69 -121q0 -81 -66 -133.5t-190 -52.5q-151 0 -286 53z" />
<glyph unicode="&#xb9;" horiz-adv-x="829" d="M119 1329v184q244 0 254 179h270v-832h-324v469h-200z" />
<glyph unicode="&#xba;" horiz-adv-x="1095" d="M84 852q0 120 64.5 209.5t169 133.5t231.5 44t231 -44.5t168 -134t64 -208.5q0 -118 -64 -207.5t-168.5 -134.5t-230.5 -45q-127 0 -231.5 44.5t-169 134t-64.5 208.5zM438 852q0 -54 30.5 -91.5t78.5 -37.5t78 37.5t30 91.5t-30 91.5t-78 37.5t-78.5 -37.5t-30.5 -91.5z " />
<glyph unicode="&#xbb;" horiz-adv-x="1671" d="M47 55l428 494l-428 493h461l393 -493l-393 -494h-461zM768 55l428 494l-428 493h461l393 -493l-393 -494h-461z" />
<glyph unicode="&#xbc;" horiz-adv-x="2283" d="M147 1044v185q244 0 254 178h271v-832h-324v469h-201zM526 -39l918 1473h313l-917 -1473h-314zM1354 150v231l321 450h381v-448h80v-233h-80v-150h-303v150h-399zM1614 377h145v207z" />
<glyph unicode="&#xbd;" horiz-adv-x="2283" d="M117 1044v185q244 0 254 178h270v-832h-324v469h-200zM496 -39l917 1473h313l-917 -1473h-313zM1470 0v244q34 21 89 53.5t89 52t75 47.5t64.5 49t39.5 45.5t16 47.5q0 25 -27 38t-71 13q-119 0 -227 -53l-48 239q68 28 169.5 49t179.5 21q63 0 113 -7t97 -25t78 -47.5 t49.5 -76.5t18.5 -110q0 -93 -59 -166.5t-177 -157.5h244v-256h-713z" />
<glyph unicode="&#xbe;" horiz-adv-x="2283" d="M109 608l30 246q120 -51 228 -51q131 0 131 41q0 43 -82 43h-160v219h125q29 0 46.5 2t31.5 10.5t14 24.5q0 23 -24.5 30t-75.5 7q-99 0 -197 -39l-37 231q135 49 297 49q168 0 263.5 -59.5t95.5 -179.5q0 -62 -38.5 -109t-97.5 -72q72 -18 124.5 -73.5t52.5 -128.5 q0 -64 -33 -112t-90.5 -75t-127 -40t-151.5 -13q-190 0 -325 49zM545 -39l917 1473h314l-918 -1473h-313zM1393 150v231l321 450h381v-448h80v-233h-80v-150h-303v150h-399zM1653 377h145v207z" />
<glyph unicode="&#xbf;" horiz-adv-x="1054" d="M55 0q0 60 20 116t50.5 96t66 81.5t66 75t50.5 75t20 82.5v43h409v-69q0 -55 -30.5 -110.5t-66.5 -94.5t-66.5 -92.5t-30.5 -106.5q0 -69 116 -69q134 0 285 57l66 -326q-217 -84 -459 -84q-107 0 -193.5 17t-156.5 54t-108 101.5t-38 153.5zM287 676v409h481v-409h-481z " />
<glyph unicode="&#xc0;" horiz-adv-x="1552" d="M-27 0l484 1384h637l485 -1384h-535l-63 231h-410l-61 -231h-537zM330 1825h407l226 -318h-297zM659 555h234l-117 426z" />
<glyph unicode="&#xc1;" horiz-adv-x="1552" d="M-27 0l484 1384h637l485 -1384h-535l-63 231h-410l-61 -231h-537zM569 1507l226 318h407l-336 -318h-297zM659 555h234l-117 426z" />
<glyph unicode="&#xc2;" horiz-adv-x="1552" d="M-27 0l484 1384h637l485 -1384h-535l-63 231h-410l-61 -231h-537zM334 1507l244 318h397l244 -318h-297l-146 144l-145 -144h-297zM659 555h234l-117 426z" />
<glyph unicode="&#xc3;" horiz-adv-x="1552" d="M-27 0l484 1384h637l485 -1384h-535l-63 231h-410l-61 -231h-537zM358 1503q0 50 17.5 104.5t49.5 102.5t82 78.5t109 30.5q53 0 102.5 -16t79 -35.5t63 -35.5t59.5 -16q31 0 59.5 32.5t40.5 80.5h170q-1 -76 -34 -152t-94.5 -128t-133.5 -52q-53 0 -99.5 15.5 t-74.5 34.5t-64 34.5t-69 15.5q-32 0 -59 -28t-38 -66h-166zM659 555h234l-117 426z" />
<glyph unicode="&#xc4;" horiz-adv-x="1552" d="M-27 0l484 1384h637l485 -1384h-535l-63 231h-410l-61 -231h-537zM352 1524v268h334v-268h-334zM659 555h234l-117 426zM868 1524v268h334v-268h-334z" />
<glyph unicode="&#xc5;" horiz-adv-x="1552" d="M-27 0l484 1384h637l485 -1384h-535l-63 231h-410l-61 -231h-537zM524 1688q0 103 73.5 167t178.5 64t178.5 -64t73.5 -167t-73.5 -167.5t-178.5 -64.5t-178.5 64.5t-73.5 167.5zM659 555h234l-117 426zM670 1688q0 -44 30.5 -72.5t75.5 -28.5t76 28.5t31 72.5t-31 72 t-76 28t-75.5 -28t-30.5 -72z" />
<glyph unicode="&#xc6;" horiz-adv-x="2146" d="M-63 0l733 1384h1390v-389h-583l8 -121h487v-360h-461l9 -127h540v-387h-995l-16 223h-459l-113 -223h-540zM758 555h266l-31 440h-12z" />
<glyph unicode="&#xc7;" horiz-adv-x="1361" d="M57 692q0 220 95.5 383.5t267.5 249.5t399 86q244 0 502 -86l-102 -373q-122 52 -267 52q-168 0 -260 -82t-92 -230t92 -229.5t260 -81.5q147 0 267 51l102 -373q-250 -83 -498 -86l-59 -92q101 -3 170.5 -51t69.5 -121q0 -81 -66 -133.5t-190 -52.5q-152 0 -287 53 l53 119q250 -53 250 53q0 62 -176 72l94 164q-288 37 -456.5 224.5t-168.5 483.5z" />
<glyph unicode="&#xc8;" horiz-adv-x="1347" d="M119 0v1384h1143v-389h-623v-121h545v-360h-545v-127h623v-387h-1143zM252 1825h407l226 -318h-297z" />
<glyph unicode="&#xc9;" horiz-adv-x="1347" d="M119 0v1384h1143v-389h-623v-121h545v-360h-545v-127h623v-387h-1143zM444 1507l226 318h407l-336 -318h-297z" />
<glyph unicode="&#xca;" horiz-adv-x="1347" d="M119 0v1384h1143v-389h-623v-121h545v-360h-545v-127h623v-387h-1143zM248 1507l244 318h397l244 -318h-297l-146 144l-145 -144h-297z" />
<glyph unicode="&#xcb;" horiz-adv-x="1347" d="M119 0v1384h1143v-389h-623v-121h545v-360h-545v-127h623v-387h-1143zM270 1524v268h334v-268h-334zM786 1524v268h334v-268h-334z" />
<glyph unicode="&#xcc;" horiz-adv-x="772" d="M-35 1825h408l225 -318h-297zM119 0v1384h534v-1384h-534z" />
<glyph unicode="&#xcd;" horiz-adv-x="772" d="M119 0v1384h534v-1384h-534zM178 1507l225 318h408l-336 -318h-297z" />
<glyph unicode="&#xce;" horiz-adv-x="772" d="M-57 1507l243 318h398l243 -318h-297l-145 144l-145 -144h-297zM119 0v1384h534v-1384h-534z" />
<glyph unicode="&#xcf;" horiz-adv-x="772" d="M-39 1524v268h334v-268h-334zM119 0v1384h534v-1384h-534zM477 1524v268h334v-268h-334z" />
<glyph unicode="&#xd0;" horiz-adv-x="1624" d="M8 606v205h133v565q231 35 533 35q265 0 466 -83.5t315 -249t114 -394.5q0 -127 -33.5 -232t-88.5 -177t-134.5 -127.5t-163 -88t-182.5 -52.5t-183.5 -27t-175.5 -7q-189 0 -467 29v604h-133zM674 367q16 -2 61 -2q149 0 222 93.5t73 250.5q0 154 -76 238.5t-215 84.5 q-49 0 -65 -2v-219h215v-205h-215v-239z" />
<glyph unicode="&#xd1;" horiz-adv-x="1667" d="M119 0v1384h532l408 -706v706h489v-1384h-506l-434 711v-711h-489zM434 1503q0 50 17.5 104.5t49.5 102.5t82 78.5t109 30.5q53 0 102 -16t79 -35.5t63 -35.5t59 -16q31 0 60 33t41 80h170q-1 -76 -34 -152t-94.5 -128t-133.5 -52q-53 0 -99.5 15.5t-75 34.5t-64.5 34.5 t-69 15.5q-32 0 -58.5 -28t-37.5 -66h-166z" />
<glyph unicode="&#xd2;" horiz-adv-x="1677" d="M55 692q0 221 99 384.5t276 249t410 85.5q232 0 408.5 -85.5t275 -249t98.5 -384.5t-98.5 -384.5t-275 -249t-408.5 -85.5q-233 0 -410 85.5t-276 249t-99 384.5zM422 1825h407l226 -318h-297zM594 692q0 -155 62 -238t184 -83q120 0 181.5 83t61.5 238q0 156 -61.5 239 t-181.5 83q-122 0 -184 -83t-62 -239z" />
<glyph unicode="&#xd3;" horiz-adv-x="1677" d="M55 692q0 221 99 384.5t276 249t410 85.5q232 0 408.5 -85.5t275 -249t98.5 -384.5t-98.5 -384.5t-275 -249t-408.5 -85.5q-233 0 -410 85.5t-276 249t-99 384.5zM594 692q0 -155 62 -238t184 -83q120 0 181.5 83t61.5 238q0 156 -61.5 239t-181.5 83q-122 0 -184 -83 t-62 -239zM610 1507l226 318h407l-336 -318h-297z" />
<glyph unicode="&#xd4;" horiz-adv-x="1677" d="M55 692q0 221 99 384.5t276 249t410 85.5q232 0 408.5 -85.5t275 -249t98.5 -384.5t-98.5 -384.5t-275 -249t-408.5 -85.5q-233 0 -410 85.5t-276 249t-99 384.5zM395 1507l244 318h397l244 -318h-297l-145 144l-146 -144h-297zM594 692q0 -155 62 -238t184 -83 q120 0 181.5 83t61.5 238q0 156 -61.5 239t-181.5 83q-122 0 -184 -83t-62 -239z" />
<glyph unicode="&#xd5;" horiz-adv-x="1677" d="M55 692q0 221 99 384.5t276 249t410 85.5q232 0 408.5 -85.5t275 -249t98.5 -384.5t-98.5 -384.5t-275 -249t-408.5 -85.5q-233 0 -410 85.5t-276 249t-99 384.5zM420 1503q0 50 17.5 104.5t49.5 102.5t82 78.5t109 30.5q53 0 102 -16t79 -35.5t63 -35.5t59 -16 q31 0 59.5 32.5t40.5 80.5h170q-1 -76 -34 -152t-94.5 -128t-133.5 -52q-53 0 -99.5 15.5t-74.5 34.5t-64 34.5t-69 15.5q-32 0 -58.5 -28t-37.5 -66h-166zM594 692q0 -155 62 -238t184 -83q120 0 181.5 83t61.5 238q0 156 -61.5 239t-181.5 83q-122 0 -184 -83t-62 -239z " />
<glyph unicode="&#xd6;" horiz-adv-x="1677" d="M55 692q0 221 99 384.5t276 249t410 85.5q232 0 408.5 -85.5t275 -249t98.5 -384.5t-98.5 -384.5t-275 -249t-408.5 -85.5q-233 0 -410 85.5t-276 249t-99 384.5zM414 1524v268h334v-268h-334zM594 692q0 -155 62 -238t184 -83q120 0 181.5 83t61.5 238q0 156 -61.5 239 t-181.5 83q-122 0 -184 -83t-62 -239zM930 1524v268h334v-268h-334z" />
<glyph unicode="&#xd7;" horiz-adv-x="1142" d="M57 811l226 225l286 -286l287 286l229 -231l-286 -287l286 -287l-223 -223l-287 287l-286 -287l-230 232l285 284z" />
<glyph unicode="&#xd8;" horiz-adv-x="1677" d="M55 692q0 221 99 384.5t276 249t410 85.5q220 0 395 -82l117 160l96 -72l-109 -145q136 -94 209.5 -241.5t73.5 -338.5q0 -221 -98.5 -384.5t-275 -249t-408.5 -85.5q-220 0 -400 80l-116 -157l-97 69l109 148q-135 94 -208 241.5t-73 337.5zM594 692q0 -110 31 -186 l348 471q-52 37 -133 37q-122 0 -184 -83t-62 -239zM702 408q55 -37 138 -37q120 0 181.5 83t61.5 238q0 109 -32 187z" />
<glyph unicode="&#xd9;" horiz-adv-x="1546" d="M104 547v837h535v-831q0 -84 27.5 -128t105.5 -44q79 0 107 44.5t28 127.5v831h535v-837q0 -289 -174 -431.5t-496 -142.5t-495 142.5t-173 431.5zM354 1825h408l225 -318h-297z" />
<glyph unicode="&#xda;" horiz-adv-x="1546" d="M104 547v837h535v-831q0 -84 27.5 -128t105.5 -44q79 0 107 44.5t28 127.5v831h535v-837q0 -289 -174 -431.5t-496 -142.5t-495 142.5t-173 431.5zM578 1507l225 318h407l-336 -318h-296z" />
<glyph unicode="&#xdb;" horiz-adv-x="1546" d="M104 547v837h535v-831q0 -84 27.5 -128t105.5 -44q79 0 107 44.5t28 127.5v831h535v-837q0 -289 -174 -431.5t-496 -142.5t-495 142.5t-173 431.5zM330 1507l243 318h398l243 -318h-296l-146 144l-145 -144h-297z" />
<glyph unicode="&#xdc;" horiz-adv-x="1546" d="M104 547v837h535v-831q0 -84 27.5 -128t105.5 -44q79 0 107 44.5t28 127.5v831h535v-837q0 -289 -174 -431.5t-496 -142.5t-495 142.5t-173 431.5zM348 1524v268h334v-268h-334zM864 1524v268h334v-268h-334z" />
<glyph unicode="&#xdd;" horiz-adv-x="1464" d="M-37 1384h541l225 -499l232 499h538l-500 -890v-494h-534v494zM481 1507l226 318h407l-336 -318h-297z" />
<glyph unicode="&#xde;" horiz-adv-x="1472" d="M119 0v1384h524v-159q102 -3 191.5 -14.5t181 -35t163 -63.5t128.5 -96t87.5 -137t30.5 -181q0 -112 -44.5 -202.5t-118.5 -149t-176 -97t-212 -54t-231 -13.5v-182h-524zM643 553q39 -3 78 1t83 17t71.5 47t27.5 84q0 38 -19.5 67.5t-49.5 44.5t-66 24.5t-68 9t-57 -1.5 v-293z" />
<glyph unicode="&#xdf;" horiz-adv-x="1523" d="M100 0v967q0 89 24.5 171.5t78 156t132 127.5t193.5 86t254 32q172 0 316 -56.5t228.5 -156.5t84.5 -223q0 -120 -59 -214t-154 -136q132 -40 204.5 -139.5t72.5 -229.5q0 -93 -31 -165t-82.5 -118t-124 -75.5t-149.5 -41.5t-166 -12q-108 0 -213 19l45 356q40 -4 71 -4 q65 0 108.5 27t43.5 78q0 53 -40 81.5t-106 28.5h-67v359h22q71 0 115.5 29.5t44.5 92.5q0 48 -42 82.5t-122 34.5q-95 0 -142.5 -53t-47.5 -133v-971h-492z" />
<glyph unicode="&#xe0;" horiz-adv-x="1329" d="M39 322q0 172 121 261t346 89q40 0 109 -7t104 -14v11q0 100 -191 100q-184 0 -340 -60l-71 324q222 86 522 86q301 0 451.5 -119t150.5 -352v-641h-516v100q-137 -127 -317 -127q-160 0 -264.5 102t-104.5 247zM229 1526h408l225 -318h-297zM528 346q0 -38 24 -61 t66 -23q59 0 86 39t27 102v37q-30 6 -76 6q-60 0 -93.5 -27t-33.5 -73z" />
<glyph unicode="&#xe1;" horiz-adv-x="1329" d="M39 322q0 172 121 261t346 89q40 0 109 -7t104 -14v11q0 100 -191 100q-184 0 -340 -60l-71 324q222 86 522 86q301 0 451.5 -119t150.5 -352v-641h-516v100q-137 -127 -317 -127q-160 0 -264.5 102t-104.5 247zM389 1208l225 318h408l-336 -318h-297zM528 346 q0 -38 24 -61t66 -23q59 0 86 39t27 102v37q-30 6 -76 6q-60 0 -93.5 -27t-33.5 -73z" />
<glyph unicode="&#xe2;" horiz-adv-x="1329" d="M39 322q0 172 121 261t346 89q40 0 109 -7t104 -14v11q0 100 -191 100q-184 0 -340 -60l-71 324q222 86 522 86q301 0 451.5 -119t150.5 -352v-641h-516v100q-137 -127 -317 -127q-160 0 -264.5 102t-104.5 247zM201 1208l243 318h398l243 -318h-297l-145 144l-145 -144 h-297zM528 346q0 -38 24 -61t66 -23q59 0 86 39t27 102v37q-30 6 -76 6q-60 0 -93.5 -27t-33.5 -73z" />
<glyph unicode="&#xe3;" horiz-adv-x="1329" d="M39 322q0 172 121 261t346 89q40 0 109 -7t104 -14v11q0 100 -191 100q-184 0 -340 -60l-71 324q222 86 522 86q301 0 451.5 -119t150.5 -352v-641h-516v100q-137 -127 -317 -127q-160 0 -264.5 102t-104.5 247zM242 1204q0 50 17.5 104.5t49.5 102.5t82 78.5t109 30.5 q68 0 126.5 -26t102 -51.5t74.5 -25.5t59.5 32.5t40.5 80.5h170q-1 -76 -34 -152t-94.5 -128t-133.5 -52q-53 0 -99.5 15.5t-74.5 34.5t-64 34.5t-69 15.5q-32 0 -58.5 -28t-37.5 -66h-166zM528 346q0 -38 24 -61t66 -23q59 0 86 39t27 102v37q-30 6 -76 6q-60 0 -93.5 -27 t-33.5 -73z" />
<glyph unicode="&#xe4;" horiz-adv-x="1329" d="M39 322q0 172 121 261t346 89q40 0 109 -7t104 -14v11q0 100 -191 100q-184 0 -340 -60l-71 324q222 86 522 86q301 0 451.5 -119t150.5 -352v-641h-516v100q-137 -127 -317 -127q-160 0 -264.5 102t-104.5 247zM229 1225v268h334v-268h-334zM528 346q0 -38 24 -61 t66 -23q59 0 86 39t27 102v37q-30 6 -76 6q-60 0 -93.5 -27t-33.5 -73zM745 1225v268h334v-268h-334z" />
<glyph unicode="&#xe5;" horiz-adv-x="1329" d="M39 322q0 172 121 261t346 89q40 0 109 -7t104 -14v11q0 100 -191 100q-184 0 -340 -60l-71 324q222 86 522 86q301 0 451.5 -119t150.5 -352v-641h-516v100q-137 -127 -317 -127q-160 0 -264.5 102t-104.5 247zM391 1432q0 103 73.5 167t178.5 64t178.5 -64t73.5 -167 t-73.5 -167.5t-178.5 -64.5t-178.5 64.5t-73.5 167.5zM528 346q0 -38 24 -61t66 -23q59 0 86 39t27 102v37q-30 6 -76 6q-60 0 -93.5 -27t-33.5 -73zM537 1432q0 -44 30.5 -72.5t75.5 -28.5t76 28.5t31 72.5t-31 72t-76 28t-75.5 -28t-30.5 -72z" />
<glyph unicode="&#xe6;" horiz-adv-x="1972" d="M37 322q0 172 121 261t346 89q40 0 109 -7t104 -14v11q0 100 -191 100q-184 0 -340 -60l-71 324q222 86 465 86q288 0 426 -162q127 162 368 162q138 0 244.5 -41.5t174 -117t102 -178.5t34.5 -230q0 -37 -8 -123h-682q57 -117 297 -117q134 0 285 51l53 -307 q-194 -76 -434 -76q-308 0 -455 181q-153 -181 -479 -181q-218 0 -343.5 100t-125.5 249zM532 346q0 -37 24.5 -60.5t66.5 -23.5q59 0 85.5 39t26.5 102v37q-30 6 -76 6q-60 0 -93.5 -27t-33.5 -73zM1217 666h270q-8 64 -39.5 103.5t-89.5 39.5q-112 0 -141 -143z" />
<glyph unicode="&#xe7;" horiz-adv-x="1103" d="M49 543q0 254 165 411.5t443 157.5q190 0 402 -74l-68 -336q-105 43 -209 43q-62 0 -107.5 -17.5t-69 -47.5t-34 -62t-10.5 -69q0 -36 10.5 -68.5t34 -63.5t69 -49t107.5 -18q113 0 209 45l68 -350q-195 -67 -379 -72l-59 -92q101 -3 170 -51t69 -121q0 -81 -66 -133.5 t-190 -52.5q-152 0 -287 53l54 119q250 -53 250 53q0 62 -177 72l95 162q-228 32 -359 183t-131 378z" />
<glyph unicode="&#xe8;" horiz-adv-x="1253" d="M47 555q0 -144 51 -257t140 -183t204.5 -106t249.5 -36q269 0 463 76l-53 307q-151 -51 -285 -51q-240 0 -297 117h682q20 149 -3 272.5t-89.5 218t-187.5 147t-287 52.5q-119 0 -226 -40t-187 -110.5t-127.5 -176.5t-47.5 -230zM219 1526h408l225 -318h-297zM506 666 q29 143 141 143q58 0 89.5 -39.5t39.5 -103.5h-270zM506 666h270h-270z" />
<glyph unicode="&#xe9;" horiz-adv-x="1253" d="M47 555q0 -144 51 -257t140 -183t204.5 -106t249.5 -36q269 0 463 76l-53 307q-151 -51 -285 -51q-240 0 -297 117h682q20 149 -3 272.5t-89.5 218t-187.5 147t-287 52.5q-119 0 -226 -40t-187 -110.5t-127.5 -176.5t-47.5 -230zM387 1208l225 318h408l-336 -318h-297z M506 666q29 143 141 143q58 0 89.5 -39.5t39.5 -103.5h-270zM506 666h270h-270z" />
<glyph unicode="&#xea;" horiz-adv-x="1253" d="M47 555q0 -144 51 -257t140 -183t204.5 -106t249.5 -36q269 0 463 76l-53 307q-151 -51 -285 -51q-240 0 -297 117h682q20 149 -3 272.5t-89.5 218t-187.5 147t-287 52.5q-119 0 -226 -40t-187 -110.5t-127.5 -176.5t-47.5 -230zM193 1208l243 318h398l243 -318h-297 l-145 144l-146 -144h-296zM506 666q29 143 141 143q58 0 89.5 -39.5t39.5 -103.5h-270zM506 666h270h-270z" />
<glyph unicode="&#xeb;" horiz-adv-x="1253" d="M47 555q0 -144 51 -257t140 -183t204.5 -106t249.5 -36q269 0 463 76l-53 307q-151 -51 -285 -51q-240 0 -297 117h682q20 149 -3 272.5t-89.5 218t-187.5 147t-287 52.5q-119 0 -226 -40t-187 -110.5t-127.5 -176.5t-47.5 -230zM209 1225v268h334v-268h-334zM506 666 q29 143 141 143q58 0 89.5 -39.5t39.5 -103.5h-270zM506 666h270h-270zM725 1225v268h334v-268h-334z" />
<glyph unicode="&#xec;" horiz-adv-x="727" d="M-49 1526h407l226 -318h-297zM102 0v1085h523v-1085h-523z" />
<glyph unicode="&#xed;" horiz-adv-x="727" d="M102 0v1085h523v-1085h-523zM154 1208l225 318h407l-335 -318h-297z" />
<glyph unicode="&#xee;" horiz-adv-x="727" d="M-80 1208l244 318h397l244 -318h-297l-146 144l-145 -144h-297zM102 0v1085h523v-1085h-523z" />
<glyph unicode="&#xef;" horiz-adv-x="727" d="M-61 1225v268h333v-268h-333zM102 0v1085h523v-1085h-523zM455 1225v268h333v-268h-333z" />
<glyph unicode="&#xf0;" horiz-adv-x="1302" d="M53 492q0 120 37.5 219.5t100.5 164t144 99.5t169 35q181 0 293 -101q-65 141 -193 260l-297 -118l-49 127l223 88q-97 67 -243 133l442 100q98 -50 158 -92l182 74l49 -127l-111 -45q287 -274 287 -742q0 -139 -48 -253t-129.5 -187.5t-189 -113.5t-227.5 -40 q-121 0 -229 35t-190.5 100t-130.5 164.5t-48 219.5zM512 492q0 -69 38.5 -118.5t98.5 -49.5t98.5 49.5t38.5 118.5q0 71 -38.5 120.5t-98.5 49.5t-98.5 -49.5t-38.5 -120.5z" />
<glyph unicode="&#xf1;" horiz-adv-x="1431" d="M102 0v1085h506v-106q133 133 340 133q165 0 278 -107.5t113 -267.5v-737h-522v621q0 41 -28 70.5t-68 29.5t-68 -29.5t-28 -70.5v-621h-523zM303 1204q0 50 17.5 104.5t49.5 102.5t82 78.5t109 30.5q68 0 126.5 -26t102 -51.5t74.5 -25.5t60 33t41 80h170 q-2 -120 -78.5 -226t-184.5 -106q-53 0 -99.5 15.5t-74.5 34.5t-64 34.5t-69 15.5q-32 0 -58.5 -28t-37.5 -66h-166z" />
<glyph unicode="&#xf2;" d="M45 543q0 132 53 241t143 180t209 109.5t252 38.5t251 -39t208 -110t142.5 -180t52.5 -240t-52.5 -240t-142.5 -180.5t-208 -110.5t-251 -39t-252 39t-209 110t-143 180t-53 241zM268 1526h408l225 -318h-297zM547 543q0 -79 43 -135t110 -56t110.5 56t43.5 135 t-43.5 134.5t-110.5 55.5t-110 -55.5t-43 -134.5z" />
<glyph unicode="&#xf3;" d="M45 543q0 132 53 241t143 180t209 109.5t252 38.5t251 -39t208 -110t142.5 -180t52.5 -240t-52.5 -240t-142.5 -180.5t-208 -110.5t-251 -39t-252 39t-209 110t-143 180t-53 241zM467 1208l225 318h408l-336 -318h-297zM547 543q0 -79 43 -135t110 -56t110.5 56t43.5 135 t-43.5 134.5t-110.5 55.5t-110 -55.5t-43 -134.5z" />
<glyph unicode="&#xf4;" d="M45 543q0 132 53 241t143 180t209 109.5t252 38.5t251 -39t208 -110t142.5 -180t52.5 -240t-52.5 -240t-142.5 -180.5t-208 -110.5t-251 -39t-252 39t-209 110t-143 180t-53 241zM258 1208l244 318h397l244 -318h-297l-146 144l-145 -144h-297zM547 543q0 -79 43 -135 t110 -56t110.5 56t43.5 135t-43.5 134.5t-110.5 55.5t-110 -55.5t-43 -134.5z" />
<glyph unicode="&#xf5;" d="M45 543q0 132 53 241t143 180t209 109.5t252 38.5t251 -39t208 -110t142.5 -180t52.5 -240t-52.5 -240t-142.5 -180.5t-208 -110.5t-251 -39t-252 39t-209 110t-143 180t-53 241zM272 1204q0 50 17.5 104.5t49.5 102.5t82 78.5t109 30.5q53 0 102.5 -16t79 -35.5 t63 -35.5t59.5 -16q31 0 59.5 32.5t40.5 80.5h170q-1 -76 -34 -152t-94.5 -128t-133.5 -52q-53 0 -99.5 15.5t-74.5 34.5t-64 34.5t-69 15.5q-32 0 -59 -28t-38 -66h-166zM547 543q0 -79 43 -135t110 -56t110.5 56t43.5 135t-43.5 134.5t-110.5 55.5t-110 -55.5t-43 -134.5z " />
<glyph unicode="&#xf6;" d="M45 543q0 132 53 241t143 180t209 109.5t252 38.5t251 -39t208 -110t142.5 -180t52.5 -240t-52.5 -240t-142.5 -180.5t-208 -110.5t-251 -39t-252 39t-209 110t-143 180t-53 241zM276 1225v268h334v-268h-334zM547 543q0 -79 43 -135t110 -56t110.5 56t43.5 135 t-43.5 134.5t-110.5 55.5t-110 -55.5t-43 -134.5zM793 1225v268h333v-268h-333z" />
<glyph unicode="&#xf7;" horiz-adv-x="1177" d="M61 362v318h1055v-318h-1055zM395 -59v288h387v-288h-387zM395 811v289h387v-289h-387z" />
<glyph unicode="&#xf8;" d="M45 543q0 132 53 241t143 180t209 109.5t252 38.5q194 0 355 -82l100 119l70 -59l-92 -109q104 -74 162.5 -185.5t58.5 -252.5q0 -131 -52.5 -240t-142.5 -180.5t-208 -110.5t-251 -39q-200 0 -354 80l-102 -121l-70 60l92 108q-106 76 -164.5 188.5t-58.5 254.5z M547 543q0 -55 16 -94l225 264q-38 35 -88 35q-70 0 -111.5 -61.5t-41.5 -143.5zM614 369q36 -31 86 -31q70 0 112 61.5t42 143.5q0 49 -14 90z" />
<glyph unicode="&#xf9;" horiz-adv-x="1431" d="M92 348v737h522v-620q0 -41 28.5 -70.5t68.5 -29.5t68 29.5t28 70.5v620h522v-1085h-506v106q-133 -133 -340 -133q-165 0 -278 107.5t-113 267.5zM242 1526h407l225 -318h-296z" />
<glyph unicode="&#xfa;" horiz-adv-x="1431" d="M92 348v737h522v-620q0 -41 28.5 -70.5t68.5 -29.5t68 29.5t28 70.5v620h522v-1085h-506v106q-133 -133 -340 -133q-165 0 -278 107.5t-113 267.5zM520 1208l225 318h408l-336 -318h-297z" />
<glyph unicode="&#xfb;" horiz-adv-x="1431" d="M92 348v737h522v-620q0 -41 28.5 -70.5t68.5 -29.5t68 29.5t28 70.5v620h522v-1085h-506v106q-133 -133 -340 -133q-165 0 -278 107.5t-113 267.5zM268 1208l244 318h397l244 -318h-297l-145 144l-146 -144h-297z" />
<glyph unicode="&#xfc;" horiz-adv-x="1431" d="M92 348v737h522v-620q0 -41 28.5 -70.5t68.5 -29.5t68 29.5t28 70.5v620h522v-1085h-506v106q-133 -133 -340 -133q-165 0 -278 107.5t-113 267.5zM287 1225v268h334v-268h-334zM803 1225v268h334v-268h-334z" />
<glyph unicode="&#xfd;" horiz-adv-x="1425" d="M88 428v657h522v-587q0 -43 28.5 -73t68.5 -30t68 30t28 73v587h522v-913q0 -315 -149.5 -455.5t-489.5 -140.5q-123 0 -219 15.5t-157 42t-101 64t-56 79t-16 90.5q0 93 60.5 165.5t173.5 110.5q-137 10 -210 85t-73 200zM512 1208l225 318h408l-336 -318h-297zM614 -31 q0 -42 21 -69t67 -27q101 0 101 121v145q-8 -1 -20.5 -3.5t-45 -15t-57.5 -29.5t-45.5 -49.5t-20.5 -72.5z" />
<glyph unicode="&#xfe;" horiz-adv-x="1441" d="M102 -397v1910h523v-538q127 137 309 137q133 0 238 -76.5t162 -205.5t57 -285t-57 -286.5t-162 -208t-238 -77.5q-98 0 -183 44t-147 122v-536h-502zM582 545q0 -77 42.5 -130t108.5 -53t109 53.5t43 129.5t-43 129t-109 53t-108.5 -52.5t-42.5 -129.5z" />
<glyph unicode="&#xff;" horiz-adv-x="1425" d="M88 428v657h522v-587q0 -43 28.5 -73t68.5 -30t68 30t28 73v587h522v-913q0 -315 -149.5 -455.5t-489.5 -140.5q-123 0 -219 15.5t-157 42t-101 64t-56 79t-16 90.5q0 93 60.5 165.5t173.5 110.5q-137 10 -210 85t-73 200zM283 1225v268h333v-268h-333zM614 -31 q0 -42 21 -69t67 -27q101 0 101 121v145q-8 -1 -20.5 -3.5t-45 -15t-57.5 -29.5t-45.5 -49.5t-20.5 -72.5zM799 1225v268h334v-268h-334z" />
<glyph unicode="&#x152;" horiz-adv-x="2207" d="M57 692q0 220 99.5 377.5t274.5 236t409 78.5h1282v-389h-596v-121h518v-360h-518v-127h596v-387h-1282q-234 0 -409 78.5t-274.5 236t-99.5 377.5zM596 692q0 -152 60.5 -223.5t183.5 -71.5h174v590h-174q-123 0 -183.5 -71.5t-60.5 -223.5z" />
<glyph unicode="&#x153;" horiz-adv-x="2052" d="M47 543q0 132 49.5 241t134.5 180t196 109.5t235 38.5q279 0 417 -170q60 82 157.5 126t217.5 44q138 0 244.5 -41.5t174 -117t102 -178.5t34.5 -230q0 -37 -8 -123h-682q57 -117 297 -117q134 0 285 51l53 -307q-194 -76 -434 -76q-293 0 -443 166q-137 -166 -415 -166 q-124 0 -235 39t-196 110t-134.5 180t-49.5 241zM549 543q0 -79 43 -135t110 -56t110.5 56t43.5 135t-43.5 134.5t-110.5 55.5t-110 -55.5t-43 -134.5zM1296 666h271q-8 64 -39.5 103.5t-89.5 39.5q-113 0 -142 -143z" />
<glyph unicode="&#x178;" horiz-adv-x="1464" d="M-37 1384h541l225 -499l232 499h538l-500 -890v-494h-534v494zM305 1524v268h334v-268h-334zM821 1524v268h334v-268h-334z" />
<glyph unicode="&#x2c6;" horiz-adv-x="1097" d="M102 1208l244 318h397l244 -318h-297l-145 144l-146 -144h-297z" />
<glyph unicode="&#x2dc;" horiz-adv-x="1087" d="M137 1204q0 50 17.5 104.5t49.5 102.5t82 78.5t109 30.5q68 0 126.5 -26t102 -51.5t74.5 -25.5t60 33t41 80h170q-1 -76 -34 -152t-94.5 -128t-133.5 -52q-53 0 -99.5 15.5t-75 34.5t-64.5 34.5t-69 15.5q-32 0 -58.5 -28t-37.5 -66h-166z" />
<glyph unicode="&#x2000;" horiz-adv-x="959" />
<glyph unicode="&#x2001;" horiz-adv-x="1919" />
<glyph unicode="&#x2002;" horiz-adv-x="959" />
<glyph unicode="&#x2003;" horiz-adv-x="1919" />
<glyph unicode="&#x2004;" horiz-adv-x="639" />
<glyph unicode="&#x2005;" horiz-adv-x="479" />
<glyph unicode="&#x2006;" horiz-adv-x="319" />
<glyph unicode="&#x2007;" horiz-adv-x="319" />
<glyph unicode="&#x2008;" horiz-adv-x="239" />
<glyph unicode="&#x2009;" horiz-adv-x="383" />
<glyph unicode="&#x200a;" horiz-adv-x="106" />
<glyph unicode="&#x2010;" horiz-adv-x="872" d="M98 375v317h676v-317h-676z" />
<glyph unicode="&#x2011;" horiz-adv-x="872" d="M98 375v317h676v-317h-676z" />
<glyph unicode="&#x2012;" horiz-adv-x="872" d="M98 375v317h676v-317h-676z" />
<glyph unicode="&#x2013;" horiz-adv-x="1359" d="M98 375v317h1164v-317h-1164z" />
<glyph unicode="&#x2014;" horiz-adv-x="1941" d="M98 375v317h1745v-317h-1745z" />
<glyph unicode="&#x2018;" horiz-adv-x="659" d="M84 670v372l231 342h240l-188 -305h198v-409h-481z" />
<glyph unicode="&#x2019;" horiz-adv-x="638" d="M96 975v409h482v-372l-232 -342h-240l189 305h-199z" />
<glyph unicode="&#x201a;" horiz-adv-x="675" d="M98 0v410h482v-373l-232 -342h-239l188 305h-199z" />
<glyph unicode="&#x201c;" horiz-adv-x="1280" d="M84 670v372l231 342h240l-188 -305h198v-409h-481zM705 670v372l231 342h240l-189 -305h199v-409h-481z" />
<glyph unicode="&#x201d;" horiz-adv-x="1259" d="M96 975v409h482v-372l-232 -342h-240l189 305h-199zM717 975v409h481v-372l-231 -342h-240l188 305h-198z" />
<glyph unicode="&#x201e;" horiz-adv-x="1296" d="M98 0v410h482v-373l-232 -342h-239l188 305h-199zM719 0v410h481v-373l-231 -342h-240l189 305h-199z" />
<glyph unicode="&#x2022;" horiz-adv-x="917" d="M102 651q0 149 104 253t253 104t252.5 -104t103.5 -253t-103.5 -252.5t-252.5 -103.5t-253 103.5t-104 252.5z" />
<glyph unicode="&#x2026;" horiz-adv-x="2177" d="M98 0v410h482v-410h-482zM848 0v410h481v-410h-481zM1597 0v410h482v-410h-482z" />
<glyph unicode="&#x202f;" horiz-adv-x="383" />
<glyph unicode="&#x2039;" horiz-adv-x="950" d="M49 549l393 493h461l-428 -493l428 -494h-461z" />
<glyph unicode="&#x203a;" horiz-adv-x="950" d="M47 55l428 494l-428 493h461l393 -493l-393 -494h-461z" />
<glyph unicode="&#x205f;" horiz-adv-x="479" />
<glyph unicode="&#x20ac;" horiz-adv-x="1536" d="M61 483v164h1104v-164h-346q89 -102 281 -102q146 0 266 51l102 -373q-258 -86 -501 -86q-284 0 -479.5 134.5t-256.5 375.5h-170zM61 750v163h172q64 234 259 366t475 132q243 0 501 -86l-102 -373q-122 52 -266 52q-175 0 -269 -91h334v-163h-1104z" />
<glyph unicode="&#x2122;" horiz-adv-x="1396" d="M104 1202v182h508v-182h-139v-360h-229v360h-140zM676 842v542h221l84 -143l84 143h223v-542h-211v239l-92 -123h-10l-88 123v-239h-211z" />
<glyph unicode="&#xe000;" horiz-adv-x="1085" d="M0 0v1085h1085v-1085h-1085z" />
</font>
</defs>
</svg>
